<?xml version="1.0" encoding="UTF-8"?>
<svg id="Layer_1" data-name="Layer 1" xmlns="http://www.w3.org/2000/svg" version="1.1" viewBox="0 0 188 39.1">
  <defs>
    <style>
      .cls-1 {
        fill: #fff;
        stroke-width: 0px;
      }
    </style>
  </defs>
  <g>
    <path class="cls-1" d="M22.2,3.3h-8c-.2,0-.3.2-.2.4l8.3,14.3c0,.2.3.2.4,0l4-6.9c0,0,0-.2,0-.2l-4.3-7.4c0,0-.1-.1-.2-.1Z"/>
    <path class="cls-1" d="M30.9,3.6l-4,6.9c0,0,0,.2,0,.2l4.7,8.2c0,.2.3.2.4,0l4-6.9c0,0,0-.2,0-.2l-4.7-8.2c0-.2-.3-.2-.4,0Z"/>
    <path class="cls-1" d="M43.6,3.4l-14.8,25.7c0,0,0,.2,0,.2l4,6.9c0,.2.3.2.4,0L52,3.6c0-.2,0-.4-.2-.4h-8c0,0-.2,0-.2.1Z"/>
  </g>
  <g>
    <path class="cls-1" d="M64.9,12.7l-3.2,12.1c-1.2.1-2.8.1-4,0l-5.1-17.9c1.2-.1,3-.1,4.2,0l3,12,2.9-12c1.2-.1,3.4-.1,4.6,0l2.9,12,3-12c1.2-.1,2.9-.1,4.1,0l-5.1,17.8c-1.2.1-2.7.1-4,0l-3.3-12.1Z"/>
    <path class="cls-1" d="M90,19.2c-1.7.2-5.8.2-8,0v.5c0,1.8,1,2.1,3.3,2.1s2.6-.1,4.1-.4c.1,1,.1,2.3,0,3.2-1.9.3-3.3.5-5.1.5-3.8,0-6.3-1.1-6.3-4.5v-5.2c0-3.5,2.5-4.6,6.1-4.6s5.9,1.4,5.9,5.3v3ZM86,16.1c0-1.7-.9-1.9-2-1.9s-2,.2-2,1.9v.9h1.8c0-.1,2.2-.1,2.2-.1v-.8Z"/>
    <path class="cls-1" d="M105.8,21.2c0,2.9-1.9,4-4.5,4s-3.7-.6-4.2-2.2h-.2l-.2,1.9c-.9.1-2.7.1-3.6,0V6c1-.1,3.1-.1,4,0v4.9l-.2,2.2h.2c.5-1.7,2.1-2.2,4.2-2.2s4.5,1.1,4.5,4v6.3ZM101.8,16.7c0-2.1-.9-2.4-2.1-2.4s-2.1.4-2.5,1.8v3.8c.4,1.4,1,1.8,2.5,1.8s2.1-.3,2.1-2.4v-2.6Z"/>
    <path class="cls-1" d="M107.5,11.3c1-.1,3.1-.1,4,0l2.7,9.9,2.7-9.9c.9-.1,3-.1,3.9,0l-4.1,13.6c-1.2.1-3.9.1-5.2,0l-4.1-13.6Z"/>
    <path class="cls-1" d="M134.6,19.2c-1.7.2-5.8.2-8,0v.5c0,1.8,1,2.1,3.3,2.1s2.6-.1,4.1-.4c.1,1,.1,2.3,0,3.2-1.9.3-3.3.5-5.1.5-3.8,0-6.3-1.1-6.3-4.5v-5.2c0-3.5,2.5-4.6,6.1-4.6s5.9,1.4,5.9,5.3v3ZM130.7,16.1c0-1.7-.9-1.9-2-1.9s-2,.2-2,1.9v.9h1.8c0-.1,2.2-.1,2.2-.1v-.8Z"/>
    <path class="cls-1" d="M137.7,11.2c1.2,0,2.4,0,3.6,0l.2,2.3h.2c.4-1.8,2.1-2.5,4.5-2.5.1,1,.1,2.5,0,3.5-3,0-3.8.6-4.5,2.5v8c-1,.1-3.1.1-4,0v-13.7Z"/>
    <path class="cls-1" d="M158,21.7c0,2.5-2,3.5-5.3,3.5s-3-.1-4.6-.4c-.1-1-.1-2.1,0-3.1,1.4.3,2.9.3,3.9.3s1.9,0,1.9-.9v-.5c0-.7-.5-.8-1.4-1.1l-2.3-.7c-1.4-.4-2.3-1.4-2.3-3.1v-1.5c0-2.5,2.2-3.4,5.5-3.4s2.8.1,4.3.4c.1,1,.1,2.1,0,3.1-1.6-.3-2.7-.4-3.8-.4s-1.9,0-1.9.9v.4c0,.6.6.8,1.4,1.1l2.1.6c1.6.4,2.4,1.3,2.4,3.3v1.3Z"/>
    <path class="cls-1" d="M172.8,19.2c-1.7.2-5.8.2-8,0v.5c0,1.8,1,2.1,3.3,2.1s2.6-.1,4.1-.4c.1,1,.1,2.3,0,3.2-1.9.3-3.3.5-5.1.5-3.8,0-6.3-1.1-6.3-4.5v-5.2c0-3.5,2.5-4.6,6.1-4.6s5.9,1.4,5.9,5.3v3ZM168.8,16.1c0-1.7-.9-1.9-2-1.9s-2,.2-2,1.9v.9h1.8c0-.1,2.2-.1,2.2-.1v-.8Z"/>
  </g>
  <g>
    <path class="cls-1" d="M59.5,29.2h-1.9v-.5h4.4v.5h-1.9v4.9h-.6v-4.9Z"/>
    <path class="cls-1" d="M62,32.1c0-1.2.9-2.1,2.1-2.1s2.1.9,2.1,2.1-.9,2.1-2.1,2.1-2.1-.9-2.1-2.1ZM65.6,32.1c0-1-.6-1.6-1.5-1.6s-1.5.6-1.5,1.6.7,1.6,1.5,1.6,1.5-.6,1.5-1.6Z"/>
    <path class="cls-1" d="M69.4,33.9c-.2.2-.5.3-.9.3-.8,0-1.2-.4-1.2-1.2v-2.5h-.7v-.5h.7v-.9h.6v.9h1.2v.5h-1.2v2.4c0,.5.2.7.7.7s.5,0,.6-.2l.2.4Z"/>
    <path class="cls-1" d="M73.5,31.6v2.5h-.5v-.6c-.2.4-.7.7-1.4.7s-1.5-.5-1.5-1.2.4-1.2,1.6-1.2h1.3v-.2c0-.7-.4-1.1-1.2-1.1s-1,.2-1.4.5l-.2-.4c.4-.3,1-.6,1.7-.6,1.1,0,1.7.5,1.7,1.6ZM73,32.9v-.7h-1.3c-.8,0-1,.3-1,.7s.4.8,1,.8,1.1-.3,1.3-.8Z"/>
    <path class="cls-1" d="M75,28.4h.6v5.8h-.6v-5.8Z"/>
    <path class="cls-1" d="M83.1,33.7v.5h-3.8v-5.4h3.7v.5h-3.2v1.9h2.8v.5h-2.8v2h3.3Z"/>
    <path class="cls-1" d="M83.8,32.1c0-1.2.9-2.1,2.1-2.1s1.3.3,1.6.8l-.4.3c-.3-.4-.7-.6-1.2-.6-.9,0-1.5.6-1.5,1.6s.7,1.6,1.5,1.6.9-.2,1.2-.6l.4.3c-.3.5-.9.8-1.6.8-1.2,0-2.1-.9-2.1-2.1Z"/>
    <path class="cls-1" d="M88.1,32.1c0-1.2.9-2.1,2.1-2.1s2.1.9,2.1,2.1-.9,2.1-2.1,2.1-2.1-.9-2.1-2.1ZM91.7,32.1c0-1-.6-1.6-1.5-1.6s-1.5.6-1.5,1.6.7,1.6,1.5,1.6,1.5-.6,1.5-1.6Z"/>
    <path class="cls-1" d="M100.2,31.8v2.4h-.6v-2.3c0-.9-.4-1.3-1.2-1.3s-1.4.5-1.4,1.5v2.1h-.6v-2.3c0-.9-.4-1.3-1.2-1.3s-1.4.5-1.4,1.5v2.1h-.6v-4.1h.5v.7c.3-.5.8-.8,1.5-.8s1.2.3,1.5.9c.3-.5.9-.9,1.6-.9s1.6.6,1.6,1.7Z"/>
    <path class="cls-1" d="M108.4,31.8v2.4h-.6v-2.3c0-.9-.4-1.3-1.2-1.3s-1.4.5-1.4,1.5v2.1h-.6v-2.3c0-.9-.4-1.3-1.2-1.3s-1.4.5-1.4,1.5v2.1h-.6v-4.1h.5v.7c.3-.5.8-.8,1.5-.8s1.2.3,1.5.9c.3-.5.9-.9,1.6-.9s1.6.6,1.6,1.7Z"/>
    <path class="cls-1" d="M113.5,32.3h-3.4c0,.9.7,1.4,1.6,1.4s.9-.2,1.3-.5l.3.4c-.4.4-.9.7-1.6.7-1.3,0-2.1-.9-2.1-2.1s.8-2.1,2-2.1,2,.8,2,2.1,0,.1,0,.2ZM110,31.9h2.9c0-.8-.7-1.4-1.5-1.4s-1.4.6-1.4,1.4Z"/>
    <path class="cls-1" d="M116.7,30v.5s0,0-.1,0c-.9,0-1.4.5-1.4,1.5v2.1h-.6v-4.1h.5v.8c.3-.5.8-.8,1.5-.8Z"/>
    <path class="cls-1" d="M117.2,32.1c0-1.2.9-2.1,2.1-2.1s1.3.3,1.6.8l-.4.3c-.3-.4-.7-.6-1.2-.6-.9,0-1.5.6-1.5,1.6s.7,1.6,1.5,1.6.9-.2,1.2-.6l.4.3c-.3.5-.9.8-1.6.8-1.2,0-2.1-.9-2.1-2.1Z"/>
    <path class="cls-1" d="M125.5,32.3h-3.4c0,.9.7,1.4,1.6,1.4s.9-.2,1.3-.5l.3.4c-.4.4-.9.7-1.6.7-1.3,0-2.1-.9-2.1-2.1s.8-2.1,2-2.1,2,.8,2,2.1,0,.1,0,.2ZM122,31.9h2.9c0-.8-.7-1.4-1.5-1.4s-1.4.6-1.4,1.4Z"/>
    <path class="cls-1" d="M128.2,33.5l.2-.4c.4.4,1.1.7,1.8.7,1,0,1.5-.4,1.5-1,0-1.5-3.3-.6-3.3-2.6s.6-1.5,2-1.5,1.2.2,1.7.5l-.2.5c-.5-.3-1-.5-1.5-.5-1,0-1.4.4-1.4,1,0,1.5,3.3.6,3.3,2.6s-.6,1.5-2,1.5-1.6-.3-2-.7Z"/>
    <path class="cls-1" d="M133,32.1c0-1.2.9-2.1,2.1-2.1s2.1.9,2.1,2.1-.9,2.1-2.1,2.1-2.1-.9-2.1-2.1ZM136.6,32.1c0-1-.6-1.6-1.5-1.6s-1.5.6-1.5,1.6.7,1.6,1.5,1.6,1.5-.6,1.5-1.6Z"/>
    <path class="cls-1" d="M138.3,28.4h.6v5.8h-.6v-5.8Z"/>
    <path class="cls-1" d="M144,30.1v4.1h-.5v-.7c-.3.5-.8.8-1.5.8-1,0-1.7-.6-1.7-1.8v-2.4h.6v2.3c0,.9.5,1.3,1.2,1.3s1.4-.6,1.4-1.5v-2.1h.6Z"/>
    <path class="cls-1" d="M147.7,33.9c-.2.2-.5.3-.9.3-.8,0-1.2-.4-1.2-1.2v-2.5h-.7v-.5h.7v-.9h.6v.9h1.2v.5h-1.2v2.4c0,.5.2.7.7.7s.5,0,.6-.2l.2.4Z"/>
    <path class="cls-1" d="M148.6,28.8c0-.2.2-.4.4-.4s.4.2.4.4-.2.4-.4.4-.4-.2-.4-.4ZM148.7,30.1h.6v4.1h-.6v-4.1Z"/>
    <path class="cls-1" d="M150.4,32.1c0-1.2.9-2.1,2.1-2.1s2.1.9,2.1,2.1-.9,2.1-2.1,2.1-2.1-.9-2.1-2.1ZM154,32.1c0-1-.6-1.6-1.5-1.6s-1.5.6-1.5,1.6.7,1.6,1.5,1.6,1.5-.6,1.5-1.6Z"/>
    <path class="cls-1" d="M159.5,31.8v2.4h-.6v-2.3c0-.9-.5-1.3-1.2-1.3s-1.4.5-1.4,1.5v2.1h-.6v-4.1h.5v.8c.3-.5.8-.8,1.6-.8s1.7.6,1.7,1.7Z"/>
  </g>
</svg>