<?xml version="1.0" encoding="UTF-8"?>
<svg id="Layer_1" data-name="Layer 1" xmlns="http://www.w3.org/2000/svg" width="192" height="39.95" viewBox="0 0 192 39.95">
  <defs>
    <style>
      .cls-1 {
        fill: #fff;
        stroke-width: 0px;
      }
    </style>
  </defs>
  <g>
    <path class="cls-1" d="M9.94,0H.29C.07,0-.07.24.04.43l9.99,17.3c.11.19.39.19.5,0l4.83-8.36c.05-.09.05-.2,0-.29L10.19.14c-.05-.09-.15-.14-.25-.14Z"/>
    <path class="cls-1" d="M20.51.44l-4.83,8.36c-.05.09-.05.2,0,.29l5.74,9.94c.11.19.39.19.5,0l4.83-8.36c.05-.09.05-.2,0-.29L21.01.44c-.11-.19-.39-.19-.5,0Z"/>
    <path class="cls-1" d="M35.85.14l-17.9,31.01c-.05.09-.05.2,0,.29l4.83,8.36c.11.19.39.19.5,0L46,.43c.11-.19-.03-.43-.25-.43h-9.65c-.1,0-.2.06-.25.14Z"/>
  </g>
  <g>
    <path class="cls-1" d="M61.61,11.45l-3.91,14.68c-1.49.13-3.37.13-4.86.1l-6.16-21.63c1.43-.13,3.68-.13,5.08,0l3.62,14.52,3.53-14.52c1.43-.13,4.13-.13,5.53,0l3.46,14.49,3.69-14.49c1.43-.13,3.56-.13,4.96,0l-6.19,21.54c-1.49.13-3.3.13-4.8,0l-3.94-14.68Z"/>
    <path class="cls-1" d="M91.95,19.29c-2.1.19-6.96.19-9.66.03v.64c0,2.16,1.21,2.57,3.94,2.57,1.84,0,3.18-.16,4.96-.51.16,1.18.16,2.73,0,3.88-2.26.41-4.03.6-6.19.6-4.64,0-7.59-1.37-7.59-5.46v-6.26c0-4.29,3.08-5.56,7.37-5.56s7.18,1.68,7.18,6.39v3.68ZM87.15,15.45c0-2.03-1.14-2.29-2.41-2.29s-2.45.25-2.45,2.29v1.14l2.22-.16h2.64v-.98Z"/>
    <path class="cls-1" d="M111.05,21.68c0,3.53-2.32,4.83-5.4,4.83-2.57,0-4.48-.67-5.08-2.7h-.19l-.29,2.35c-1.14.16-3.24.16-4.38,0V3.35c1.18-.13,3.72-.13,4.89,0v5.88l-.22,2.7h.19c.6-2,2.51-2.7,5.08-2.7,3.08,0,5.4,1.3,5.4,4.83v7.62ZM106.15,16.28c0-2.54-1.08-2.89-2.54-2.89-1.84,0-2.51.45-3.02,2.19v4.57c.51,1.75,1.17,2.19,3.02,2.19,1.46,0,2.54-.38,2.54-2.89v-3.18Z"/>
    <path class="cls-1" d="M113.11,9.7c1.17-.16,3.75-.16,4.89,0l3.27,11.91,3.24-11.91c1.14-.16,3.59-.16,4.76,0l-4.96,16.42c-1.49.16-4.73.16-6.23,0l-4.99-16.42Z"/>
    <path class="cls-1" d="M145.9,19.29c-2.1.19-6.96.19-9.66.03v.64c0,2.16,1.21,2.57,3.94,2.57,1.84,0,3.18-.16,4.96-.51.16,1.18.16,2.73,0,3.88-2.26.41-4.04.6-6.19.6-4.64,0-7.59-1.37-7.59-5.46v-6.26c0-4.29,3.08-5.56,7.37-5.56s7.18,1.68,7.18,6.39v3.68ZM141.1,15.45c0-2.03-1.14-2.29-2.41-2.29s-2.45.25-2.45,2.29v1.14l2.22-.16h2.64v-.98Z"/>
    <path class="cls-1" d="M149.65,9.54c1.43-.1,2.89-.1,4.38,0l.29,2.73h.19c.51-2.16,2.57-3.05,5.5-3.05.13,1.18.13,3.08,0,4.23-3.62,0-4.61.73-5.46,3.02v9.66c-1.17.16-3.72.16-4.89,0V9.54Z"/>
    <path class="cls-1" d="M174.18,22.22c0,3.08-2.41,4.29-6.45,4.29-1.68,0-3.68-.13-5.53-.44-.16-1.18-.16-2.57,0-3.75,1.75.32,3.49.41,4.77.41s2.32-.1,2.32-1.05v-.64c0-.83-.6-.98-1.65-1.27l-2.8-.79c-1.75-.51-2.76-1.65-2.76-3.78v-1.81c0-2.99,2.61-4.16,6.67-4.16,1.62,0,3.33.16,5.21.54.16,1.17.16,2.51,0,3.72-1.97-.35-3.27-.48-4.64-.48-1.27,0-2.35.1-2.35,1.08v.54c0,.76.7,1.02,1.72,1.3l2.54.7c1.97.54,2.95,1.53,2.95,4v1.59Z"/>
    <path class="cls-1" d="M192,19.29c-2.1.19-6.96.19-9.66.03v.64c0,2.16,1.21,2.57,3.94,2.57,1.84,0,3.18-.16,4.96-.51.16,1.18.16,2.73,0,3.88-2.26.41-4.04.6-6.19.6-4.64,0-7.59-1.37-7.59-5.46v-6.26c0-4.29,3.08-5.56,7.37-5.56s7.18,1.68,7.18,6.39v3.68ZM187.2,15.45c0-2.03-1.14-2.29-2.41-2.29s-2.45.25-2.45,2.29v1.14l2.22-.16h2.64v-.98Z"/>
  </g>
  <g>
    <path class="cls-1" d="M55.12,31.36h-2.31v-.6h5.31v.6h-2.31v5.97h-.69v-5.97Z"/>
    <path class="cls-1" d="M58.08,34.86c0-1.46,1.07-2.5,2.51-2.5s2.5,1.04,2.5,2.5-1.06,2.51-2.5,2.51-2.51-1.05-2.51-2.51ZM62.42,34.86c0-1.15-.78-1.92-1.83-1.92s-1.84.77-1.84,1.92.79,1.92,1.84,1.92,1.83-.77,1.83-1.92Z"/>
    <path class="cls-1" d="M67.06,37.03c-.26.24-.66.35-1.04.35-.93,0-1.44-.53-1.44-1.44v-2.98h-.88v-.56h.88v-1.08h.67v1.08h1.5v.56h-1.5v2.94c0,.58.3.9.85.9.27,0,.54-.08.73-.25l.23.48Z"/>
    <path class="cls-1" d="M72,34.27v3.06h-.64v-.77c-.3.51-.88.82-1.7.82-1.12,0-1.8-.58-1.8-1.44,0-.76.49-1.4,1.9-1.4h1.57v-.3c0-.84-.48-1.3-1.4-1.3-.64,0-1.24.23-1.64.58l-.3-.5c.5-.42,1.23-.67,2.01-.67,1.28,0,2,.64,2,1.91ZM71.33,35.85v-.81h-1.55c-.96,0-1.27.37-1.27.88,0,.57.46.93,1.25.93s1.3-.36,1.57-1Z"/>
    <path class="cls-1" d="M73.81,30.37h.67v6.96h-.67v-6.96Z"/>
    <path class="cls-1" d="M83.58,36.73v.6h-4.64v-6.57h4.5v.6h-3.81v2.34h3.4v.59h-3.4v2.44h3.95Z"/>
    <path class="cls-1" d="M84.5,34.86c0-1.47,1.07-2.5,2.54-2.5.83,0,1.54.33,1.93.98l-.5.34c-.34-.5-.86-.73-1.43-.73-1.08,0-1.87.77-1.87,1.92s.79,1.92,1.87,1.92c.57,0,1.1-.22,1.43-.72l.5.34c-.39.64-1.1.98-1.93.98-1.47,0-2.54-1.04-2.54-2.51Z"/>
    <path class="cls-1" d="M89.7,34.86c0-1.46,1.07-2.5,2.51-2.5s2.5,1.04,2.5,2.5-1.06,2.51-2.5,2.51-2.51-1.05-2.51-2.51ZM94.04,34.86c0-1.15-.78-1.92-1.83-1.92s-1.84.77-1.84,1.92.79,1.92,1.84,1.92,1.83-.77,1.83-1.92Z"/>
    <path class="cls-1" d="M104.22,34.47v2.86h-.67v-2.8c0-1.04-.53-1.58-1.42-1.58-1.01,0-1.65.66-1.65,1.78v2.59h-.67v-2.8c0-1.04-.53-1.58-1.43-1.58-1,0-1.65.66-1.65,1.78v2.59h-.67v-4.93h.64v.9c.35-.59.98-.94,1.81-.94s1.45.35,1.75,1.04c.36-.64,1.06-1.04,1.95-1.04,1.2,0,1.99.69,1.99,2.11Z"/>
    <path class="cls-1" d="M114.18,34.47v2.86h-.67v-2.8c0-1.04-.53-1.58-1.42-1.58-1.01,0-1.65.66-1.65,1.78v2.59h-.67v-2.8c0-1.04-.53-1.58-1.43-1.58-1,0-1.65.66-1.65,1.78v2.59h-.67v-4.93h.64v.9c.35-.59.99-.94,1.81-.94s1.45.35,1.75,1.04c.36-.64,1.06-1.04,1.95-1.04,1.2,0,1.99.69,1.99,2.11Z"/>
    <path class="cls-1" d="M120.31,35.07h-4.13c.08,1.03.86,1.72,1.94,1.72.6,0,1.14-.21,1.51-.65l.38.43c-.44.53-1.13.81-1.91.81-1.54,0-2.59-1.05-2.59-2.51s1.02-2.5,2.41-2.5,2.39,1.02,2.39,2.5c0,.06,0,.13,0,.21ZM116.18,34.57h3.5c-.08-.97-.79-1.64-1.75-1.64s-1.66.67-1.74,1.64Z"/>
    <path class="cls-1" d="M124.16,32.36v.65c-.06,0-.11,0-.16,0-1.03,0-1.66.66-1.66,1.82v2.51h-.67v-4.93h.64v.97c.31-.66.94-1,1.85-1Z"/>
    <path class="cls-1" d="M124.82,34.86c0-1.47,1.07-2.5,2.54-2.5.83,0,1.54.33,1.93.98l-.5.34c-.34-.5-.86-.73-1.43-.73-1.08,0-1.87.77-1.87,1.92s.79,1.92,1.87,1.92c.57,0,1.1-.22,1.43-.72l.5.34c-.39.64-1.1.98-1.93.98-1.47,0-2.54-1.04-2.54-2.51Z"/>
    <path class="cls-1" d="M134.81,35.07h-4.13c.08,1.03.86,1.72,1.94,1.72.6,0,1.14-.21,1.51-.65l.38.43c-.44.53-1.13.81-1.91.81-1.54,0-2.59-1.05-2.59-2.51s1.02-2.5,2.41-2.5,2.39,1.02,2.39,2.5c0,.06,0,.13,0,.21ZM130.69,34.57h3.5c-.08-.97-.79-1.64-1.75-1.64s-1.66.67-1.75,1.64Z"/>
    <path class="cls-1" d="M138.16,36.53l.27-.53c.47.46,1.3.8,2.17.8,1.23,0,1.76-.52,1.76-1.16,0-1.8-4.04-.69-4.04-3.12,0-.97.75-1.8,2.42-1.8.74,0,1.51.21,2.04.58l-.24.55c-.56-.37-1.22-.54-1.8-.54-1.2,0-1.73.53-1.73,1.19,0,1.8,4.04.71,4.04,3.1,0,.97-.77,1.79-2.45,1.79-.98,0-1.95-.35-2.44-.85Z"/>
    <path class="cls-1" d="M143.92,34.86c0-1.46,1.07-2.5,2.51-2.5s2.5,1.04,2.5,2.5-1.06,2.51-2.5,2.51-2.51-1.05-2.51-2.51ZM148.26,34.86c0-1.15-.78-1.92-1.83-1.92s-1.84.77-1.84,1.92.79,1.92,1.84,1.92,1.83-.77,1.83-1.92Z"/>
    <path class="cls-1" d="M150.3,30.37h.67v6.96h-.67v-6.96Z"/>
    <path class="cls-1" d="M152.82,30.37h.67v6.96h-.67v-6.96Z"/>
    <path class="cls-1" d="M159.79,32.39v4.93h-.64v-.9c-.35.6-.98.95-1.77.95-1.26,0-2.08-.7-2.08-2.12v-2.86h.67v2.8c0,1.05.54,1.59,1.48,1.59,1.03,0,1.68-.67,1.68-1.79v-2.59h.67Z"/>
    <path class="cls-1" d="M164.26,37.03c-.26.24-.66.35-1.04.35-.93,0-1.44-.53-1.44-1.44v-2.98h-.88v-.56h.88v-1.08h.67v1.08h1.5v.56h-1.5v2.94c0,.58.3.9.85.9.27,0,.54-.08.73-.25l.23.48Z"/>
    <path class="cls-1" d="M165.32,30.84c0-.25.22-.47.49-.47s.49.21.49.46c0,.27-.21.49-.49.49s-.49-.22-.49-.48ZM165.47,32.39h.67v4.93h-.67v-4.93Z"/>
    <path class="cls-1" d="M167.5,34.86c0-1.46,1.07-2.5,2.51-2.5s2.5,1.04,2.5,2.5-1.06,2.51-2.5,2.51-2.51-1.05-2.51-2.51ZM171.84,34.86c0-1.15-.78-1.92-1.83-1.92s-1.84.77-1.84,1.92.79,1.92,1.84,1.92,1.83-.77,1.83-1.92Z"/>
    <path class="cls-1" d="M178.42,34.47v2.86h-.67v-2.8c0-1.04-.54-1.58-1.48-1.58-1.06,0-1.73.66-1.73,1.78v2.59h-.67v-4.93h.64v.91c.36-.6,1.02-.95,1.88-.95,1.2,0,2.03.69,2.03,2.11Z"/>
  </g>
</svg>