<?xml version="1.0" encoding="UTF-8"?>
<svg id="Layer_1" data-name="Layer 1" xmlns="http://www.w3.org/2000/svg" width="188" height="39.11" viewBox="0 0 188 39.11">
  <defs>
    <style>
      .cls-1 {
        fill: #384bff;
      }

      .cls-1, .cls-2 {
        stroke-width: 0px;
      }

      .cls-2 {
        fill: #fff;
      }
    </style>
  </defs>
  <g>
    <path class="cls-1" d="M9.73,0H.28C.07,0-.07.24.04.42l9.78,16.94c.11.19.38.19.49,0l4.72-8.18c.05-.09.05-.2,0-.28L9.98.14c-.05-.09-.14-.14-.24-.14Z"/>
    <path class="cls-1" d="M20.08.43l-4.72,8.18c-.05.09-.05.2,0,.28l5.62,9.74c.11.19.38.19.49,0l4.72-8.18c.05-.09.05-.2,0-.28L20.57.43c-.11-.19-.38-.19-.49,0Z"/>
    <path class="cls-1" d="M35.1.14l-17.53,30.37c-.05.09-.05.2,0,.28l4.72,8.18c.11.19.38.19.49,0L45.04.42c.11-.19-.03-.42-.24-.42h-9.45c-.1,0-.19.05-.24.14Z"/>
  </g>
  <g>
    <path class="cls-2" d="M60.33,11.21l-3.83,14.37c-1.46.12-3.3.12-4.76.09l-6.04-21.19c1.4-.12,3.61-.12,4.98,0l3.55,14.22,3.45-14.22c1.4-.12,4.04-.12,5.41,0l3.39,14.19,3.61-14.19c1.4-.12,3.48-.12,4.85,0l-6.07,21.09c-1.46.12-3.24.12-4.7,0l-3.86-14.37Z"/>
    <path class="cls-2" d="M90.04,18.89c-2.05.19-6.81.19-9.46.03v.62c0,2.12,1.18,2.52,3.86,2.52,1.8,0,3.11-.16,4.85-.5.16,1.15.16,2.68,0,3.8-2.21.4-3.95.59-6.07.59-4.54,0-7.44-1.34-7.44-5.35v-6.13c0-4.2,3.02-5.44,7.22-5.44s7.03,1.65,7.03,6.25v3.61ZM85.34,15.13c0-1.99-1.12-2.24-2.36-2.24s-2.4.25-2.4,2.24v1.12l2.18-.16h2.58v-.96Z"/>
    <path class="cls-2" d="M108.73,21.22c0,3.45-2.27,4.73-5.29,4.73-2.52,0-4.39-.65-4.98-2.64h-.19l-.28,2.3c-1.12.16-3.17.16-4.29,0V3.27c1.15-.12,3.64-.12,4.79,0v5.76l-.22,2.64h.19c.59-1.96,2.46-2.64,4.98-2.64,3.02,0,5.29,1.28,5.29,4.73v7.47ZM103.94,15.94c0-2.49-1.06-2.83-2.49-2.83-1.8,0-2.46.44-2.96,2.15v4.48c.5,1.71,1.15,2.15,2.96,2.15,1.43,0,2.49-.37,2.49-2.83v-3.11Z"/>
    <path class="cls-2" d="M110.76,9.5c1.15-.16,3.67-.16,4.79,0l3.2,11.67,3.17-11.67c1.12-.16,3.52-.16,4.67,0l-4.85,16.08c-1.46.16-4.64.16-6.1,0l-4.88-16.08Z"/>
    <path class="cls-2" d="M142.86,18.89c-2.05.19-6.81.19-9.46.03v.62c0,2.12,1.18,2.52,3.86,2.52,1.8,0,3.11-.16,4.85-.5.16,1.15.16,2.68,0,3.8-2.21.4-3.95.59-6.07.59-4.54,0-7.44-1.34-7.44-5.35v-6.13c0-4.2,3.02-5.44,7.22-5.44s7.03,1.65,7.03,6.25v3.61ZM138.16,15.13c0-1.99-1.12-2.24-2.36-2.24s-2.4.25-2.4,2.24v1.12l2.18-.16h2.58v-.96Z"/>
    <path class="cls-2" d="M146.53,9.34c1.4-.09,2.83-.09,4.29,0l.28,2.68h.19c.5-2.12,2.52-2.99,5.38-2.99.12,1.15.12,3.02,0,4.14-3.55,0-4.51.72-5.35,2.96v9.46c-1.15.16-3.64.16-4.79,0V9.34Z"/>
    <path class="cls-2" d="M170.55,21.75c0,3.02-2.36,4.2-6.32,4.2-1.65,0-3.61-.12-5.41-.44-.16-1.15-.16-2.52,0-3.67,1.71.31,3.42.4,4.67.4s2.27-.09,2.27-1.03v-.62c0-.81-.59-.96-1.62-1.24l-2.74-.78c-1.71-.5-2.71-1.62-2.71-3.7v-1.77c0-2.92,2.55-4.08,6.53-4.08,1.59,0,3.27.16,5.1.53.16,1.15.16,2.46,0,3.64-1.93-.34-3.2-.47-4.54-.47-1.24,0-2.3.09-2.3,1.06v.53c0,.75.68,1,1.68,1.28l2.49.68c1.93.53,2.89,1.49,2.89,3.92v1.56Z"/>
    <path class="cls-2" d="M188,18.89c-2.05.19-6.81.19-9.46.03v.62c0,2.12,1.18,2.52,3.86,2.52,1.8,0,3.11-.16,4.85-.5.16,1.15.16,2.68,0,3.8-2.21.4-3.95.59-6.07.59-4.54,0-7.44-1.34-7.44-5.35v-6.13c0-4.2,3.02-5.44,7.22-5.44s7.03,1.65,7.03,6.25v3.61ZM183.3,15.13c0-1.99-1.12-2.24-2.36-2.24s-2.4.25-2.4,2.24v1.12l2.18-.16h2.58v-.96Z"/>
  </g>
  <g>
    <path class="cls-2" d="M53.98,30.7h-2.26v-.59h5.2v.59h-2.26v5.84h-.68v-5.84Z"/>
    <path class="cls-2" d="M56.87,34.13c0-1.43,1.05-2.45,2.46-2.45s2.45,1.02,2.45,2.45-1.04,2.46-2.45,2.46-2.46-1.03-2.46-2.46ZM61.13,34.13c0-1.13-.76-1.88-1.79-1.88s-1.8.75-1.8,1.88.77,1.88,1.8,1.88,1.79-.75,1.79-1.88Z"/>
    <path class="cls-2" d="M65.66,36.26c-.26.23-.64.34-1.02.34-.91,0-1.42-.51-1.42-1.41v-2.92h-.86v-.55h.86v-1.06h.65v1.06h1.47v.55h-1.47v2.89c0,.57.29.88.84.88.27,0,.53-.08.72-.25l.23.47Z"/>
    <path class="cls-2" d="M70.5,33.55v3h-.62v-.75c-.29.5-.86.8-1.66.8-1.09,0-1.76-.57-1.76-1.41,0-.74.48-1.37,1.87-1.37h1.53v-.29c0-.83-.47-1.28-1.37-1.28-.62,0-1.21.22-1.61.57l-.29-.49c.49-.41,1.2-.65,1.97-.65,1.25,0,1.96.62,1.96,1.87ZM69.85,35.1v-.79h-1.52c-.94,0-1.24.37-1.24.86,0,.56.45.91,1.22.91s1.28-.35,1.53-.98Z"/>
    <path class="cls-2" d="M72.27,29.73h.65v6.82h-.65v-6.82Z"/>
    <path class="cls-2" d="M81.84,35.96v.59h-4.55v-6.43h4.41v.59h-3.73v2.29h3.33v.58h-3.33v2.39h3.87Z"/>
    <path class="cls-2" d="M82.74,34.13c0-1.44,1.05-2.45,2.49-2.45.82,0,1.51.32,1.89.96l-.49.33c-.33-.49-.85-.72-1.41-.72-1.06,0-1.83.75-1.83,1.88s.77,1.88,1.83,1.88c.56,0,1.08-.22,1.41-.71l.49.33c-.39.62-1.08.96-1.89.96-1.44,0-2.49-1.02-2.49-2.46Z"/>
    <path class="cls-2" d="M87.83,34.13c0-1.43,1.05-2.45,2.46-2.45s2.45,1.02,2.45,2.45-1.04,2.46-2.45,2.46-2.46-1.03-2.46-2.46ZM92.08,34.13c0-1.13-.76-1.88-1.79-1.88s-1.8.75-1.8,1.88.77,1.88,1.8,1.88,1.79-.75,1.79-1.88Z"/>
    <path class="cls-2" d="M102.05,33.75v2.8h-.65v-2.74c0-1.02-.51-1.54-1.39-1.54-.99,0-1.62.64-1.62,1.75v2.54h-.65v-2.74c0-1.02-.51-1.54-1.4-1.54-.98,0-1.62.64-1.62,1.75v2.54h-.65v-4.83h.62v.88c.34-.58.97-.92,1.77-.92s1.42.34,1.72,1.02c.35-.62,1.04-1.02,1.91-1.02,1.18,0,1.95.68,1.95,2.07Z"/>
    <path class="cls-2" d="M111.8,33.75v2.8h-.65v-2.74c0-1.02-.51-1.54-1.39-1.54-.99,0-1.62.64-1.62,1.75v2.54h-.65v-2.74c0-1.02-.51-1.54-1.4-1.54-.98,0-1.62.64-1.62,1.75v2.54h-.65v-4.83h.62v.88c.34-.58.97-.92,1.77-.92s1.42.34,1.72,1.02c.35-.62,1.04-1.02,1.91-1.02,1.18,0,1.95.68,1.95,2.07Z"/>
    <path class="cls-2" d="M117.8,34.33h-4.04c.07,1.01.85,1.68,1.9,1.68.59,0,1.11-.21,1.48-.63l.37.42c-.43.51-1.1.79-1.87.79-1.51,0-2.54-1.03-2.54-2.46s1-2.45,2.36-2.45,2.34,1,2.34,2.45c0,.06,0,.13,0,.2ZM113.76,33.85h3.43c-.08-.95-.77-1.61-1.72-1.61s-1.63.66-1.71,1.61Z"/>
    <path class="cls-2" d="M121.58,31.68v.63c-.06,0-.11,0-.16,0-1.01,0-1.63.64-1.63,1.78v2.46h-.65v-4.83h.62v.95c.3-.64.92-.98,1.81-.98Z"/>
    <path class="cls-2" d="M122.22,34.13c0-1.44,1.05-2.45,2.49-2.45.82,0,1.51.32,1.89.96l-.49.33c-.33-.49-.85-.72-1.41-.72-1.06,0-1.83.75-1.83,1.88s.77,1.88,1.83,1.88c.56,0,1.08-.22,1.41-.71l.49.33c-.39.62-1.08.96-1.89.96-1.44,0-2.49-1.02-2.49-2.46Z"/>
    <path class="cls-2" d="M132.01,34.33h-4.04c.07,1.01.85,1.68,1.9,1.68.59,0,1.11-.21,1.48-.63l.37.42c-.43.51-1.1.79-1.87.79-1.51,0-2.54-1.03-2.54-2.46s1-2.45,2.36-2.45,2.34,1,2.34,2.45c0,.06,0,.13,0,.2ZM127.96,33.85h3.43c-.08-.95-.77-1.61-1.72-1.61s-1.63.66-1.71,1.61Z"/>
    <path class="cls-2" d="M135.28,35.77l.27-.52c.46.45,1.28.78,2.12.78,1.2,0,1.73-.51,1.73-1.14,0-1.76-3.96-.68-3.96-3.06,0-.95.74-1.76,2.37-1.76.73,0,1.48.21,1.99.57l-.23.54c-.55-.36-1.19-.53-1.76-.53-1.18,0-1.7.52-1.7,1.17,0,1.76,3.96.7,3.96,3.04,0,.95-.75,1.76-2.4,1.76-.97,0-1.91-.34-2.39-.84Z"/>
    <path class="cls-2" d="M140.92,34.13c0-1.43,1.05-2.45,2.46-2.45s2.45,1.02,2.45,2.45-1.04,2.46-2.45,2.46-2.46-1.03-2.46-2.46ZM145.17,34.13c0-1.13-.76-1.88-1.79-1.88s-1.8.75-1.8,1.88.77,1.88,1.8,1.88,1.79-.75,1.79-1.88Z"/>
    <path class="cls-2" d="M147.17,29.73h.65v6.82h-.65v-6.82Z"/>
    <path class="cls-2" d="M149.64,29.73h.65v6.82h-.65v-6.82Z"/>
    <path class="cls-2" d="M156.47,31.72v4.83h-.63v-.88c-.34.59-.96.93-1.74.93-1.23,0-2.04-.69-2.04-2.08v-2.8h.65v2.74c0,1.03.53,1.55,1.45,1.55,1.01,0,1.65-.65,1.65-1.76v-2.54h.65Z"/>
    <path class="cls-2" d="M160.84,36.26c-.26.23-.64.34-1.02.34-.91,0-1.42-.51-1.42-1.41v-2.92h-.86v-.55h.86v-1.06h.65v1.06h1.47v.55h-1.47v2.89c0,.57.29.88.84.88.27,0,.53-.08.72-.25l.23.47Z"/>
    <path class="cls-2" d="M161.88,30.19c0-.25.21-.46.48-.46s.48.2.48.45c0,.27-.2.48-.48.48s-.48-.21-.48-.47ZM162.02,31.72h.65v4.83h-.65v-4.83Z"/>
    <path class="cls-2" d="M164.01,34.13c0-1.43,1.05-2.45,2.46-2.45s2.45,1.02,2.45,2.45-1.04,2.46-2.45,2.46-2.46-1.03-2.46-2.46ZM168.26,34.13c0-1.13-.76-1.88-1.79-1.88s-1.8.75-1.8,1.88.77,1.88,1.8,1.88,1.79-.75,1.79-1.88Z"/>
    <path class="cls-2" d="M174.71,33.75v2.8h-.65v-2.74c0-1.02-.53-1.54-1.45-1.54-1.04,0-1.69.64-1.69,1.75v2.54h-.65v-4.83h.62v.89c.35-.59,1-.93,1.84-.93,1.18,0,1.99.68,1.99,2.07Z"/>
  </g>
</svg>